<svg id="Layer_1" data-name="Layer 1" xmlns="http://www.w3.org/2000/svg" xmlns:xlink="http://www.w3.org/1999/xlink" viewBox="0 0 151.58 145.26"><defs><radialGradient id="radial-gradient" cx="188.82" cy="203.63" r="74.23" gradientUnits="userSpaceOnUse"><stop offset="0" stop-color="#00a99d"/><stop offset="1" stop-color="#662d91"/></radialGradient></defs><path d="M188.82,135a7,7,0,0,1,6.4,4L210,169a15.12,15.12,0,0,0,11.39,8.28L254.5,182a7.13,7.13,0,0,1,3.95,12.17l-23.94,23.34a15.08,15.08,0,0,0-4.35,13.39l5.65,32.95a7,7,0,0,1-1.54,5.77,7.3,7.3,0,0,1-5.49,2.6,7.1,7.1,0,0,1-3.32-.85l-29.59-15.56a15.21,15.21,0,0,0-14.09,0l-29.59,15.56a7.1,7.1,0,0,1-3.32.85,7.34,7.34,0,0,1-5.5-2.6,7,7,0,0,1-1.53-5.77l5.65-32.95a15.08,15.08,0,0,0-4.35-13.39L119.2,194.21a7.13,7.13,0,0,1,4-12.17l33.09-4.8A15.12,15.12,0,0,0,167.63,169l14.8-30a7,7,0,0,1,6.39-4m0-4a11,11,0,0,0-10,6.21l-14.79,30a11.17,11.17,0,0,1-8.39,6.09l-33.08,4.81a11.12,11.12,0,0,0-6.17,19l23.94,23.34a11.14,11.14,0,0,1,3.2,9.85l-5.65,33a11.15,11.15,0,0,0,11,13,11,11,0,0,0,5.18-1.31l29.59-15.56a11.2,11.2,0,0,1,10.36,0L223.6,275a11,11,0,0,0,5.18,1.31,11.16,11.16,0,0,0,11-13l-5.65-33a11.14,11.14,0,0,1,3.2-9.85l23.94-23.34a11.12,11.12,0,0,0-6.17-19L222,173.28a11.17,11.17,0,0,1-8.39-6.09l-14.79-30a11,11,0,0,0-10-6.21Z" transform="translate(-113.03 -131)" fill="url(#radial-gradient)"/></svg>